<svg width="211" height="39" viewBox="0 0 211 39" fill="none" xmlns="http://www.w3.org/2000/svg">
<path d="M11.56 30.48C9.13333 30.48 7.01333 30.1333 5.2 29.44C3.41333 28.72 1.76 27.5867 0.24 26.04L5.24 21.04C6.28 22.0267 7.37333 22.7867 8.52 23.32C9.66667 23.8267 10.8933 24.08 12.2 24.08C13.2933 24.08 14.12 23.92 14.68 23.6C15.24 23.2533 15.52 22.7867 15.52 22.2C15.52 21.6133 15.28 21.1333 14.8 20.76C14.32 20.36 13.68 20.0133 12.88 19.72C12.1067 19.4 11.24 19.08 10.28 18.76C9.34667 18.44 8.41333 18.0533 7.48 17.6C6.54667 17.1467 5.68 16.6 4.88 15.96C4.10667 15.2933 3.48 14.48 3 13.52C2.52 12.5333 2.28 11.3333 2.28 9.92C2.28 8.08 2.72 6.49333 3.6 5.16C4.48 3.82667 5.72 2.81333 7.32 2.12C8.92 1.4 10.8 1.04 12.96 1.04C15.0933 1.04 17.0667 1.38667 18.88 2.08C20.72 2.74667 22.24 3.70667 23.44 4.96L18.4 9.96C17.52 9.10666 16.64 8.48 15.76 8.08C14.88 7.65333 13.92 7.44 12.88 7.44C12.0533 7.44 11.3867 7.57333 10.88 7.84C10.4 8.10667 10.16 8.50667 10.16 9.04C10.16 9.6 10.4 10.0667 10.88 10.44C11.36 10.7867 11.9867 11.1067 12.76 11.4C13.56 11.6933 14.4267 12 15.36 12.32C16.32 12.64 17.2667 13.0267 18.2 13.48C19.1333 13.9067 19.9867 14.4667 20.76 15.16C21.56 15.8267 22.2 16.6667 22.68 17.68C23.16 18.6933 23.4 19.92 23.4 21.36C23.4 24.2667 22.36 26.52 20.28 28.12C18.2267 29.6933 15.32 30.48 11.56 30.48ZM34.455 30.4C32.615 30.4 30.9883 29.96 29.575 29.08C28.1617 28.2 27.055 27 26.255 25.48C25.455 23.9333 25.055 22.16 25.055 20.16C25.055 18.16 25.455 16.3867 26.255 14.84C27.055 13.2933 28.1617 12.0933 29.575 11.24C30.9883 10.36 32.615 9.92 34.455 9.92C35.6017 9.92 36.655 10.12 37.615 10.52C38.6017 10.8933 39.415 11.4267 40.055 12.12C40.7217 12.8133 41.1483 13.6133 41.335 14.52V25.8C41.1483 26.7067 40.7217 27.5067 40.055 28.2C39.415 28.8933 38.6017 29.44 37.615 29.84C36.655 30.2133 35.6017 30.4 34.455 30.4ZM36.215 23.52C37.2017 23.52 37.9883 23.2133 38.575 22.6C39.1883 21.96 39.495 21.1467 39.495 20.16C39.495 19.4933 39.3617 18.92 39.095 18.44C38.8283 17.9333 38.4417 17.5333 37.935 17.24C37.455 16.9467 36.895 16.8 36.255 16.8C35.615 16.8 35.0417 16.9467 34.535 17.24C34.055 17.5333 33.6683 17.9333 33.375 18.44C33.0817 18.9467 32.935 19.52 32.935 20.16C32.935 20.8 33.0683 21.3733 33.335 21.88C33.6283 22.3867 34.0283 22.7867 34.535 23.08C35.0417 23.3733 35.6017 23.52 36.215 23.52ZM39.255 38.4V24.72L40.335 19.92L39.255 15.16V10.32H46.895V38.4H39.255ZM60.0291 30.48C58.1091 30.48 56.4024 30.1067 54.9091 29.36C53.4424 28.6133 52.2824 27.5733 51.4291 26.24C50.5757 24.9067 50.1491 23.3867 50.1491 21.68V10.32H57.9891V21.76C57.9891 22.16 58.0691 22.52 58.2291 22.84C58.4157 23.16 58.6557 23.4133 58.9491 23.6C59.2691 23.76 59.6291 23.84 60.0291 23.84C60.5891 23.84 61.0557 23.6533 61.4291 23.28C61.8291 22.88 62.0291 22.3733 62.0291 21.76V10.32H69.8691V21.68C69.8691 23.4133 69.4424 24.9467 68.5891 26.28C67.7624 27.5867 66.6024 28.6133 65.1091 29.36C63.6424 30.1067 61.9491 30.48 60.0291 30.48ZM81.2909 30.4C79.4509 30.4 77.8243 29.96 76.4109 29.08C74.9976 28.2 73.8909 27 73.0909 25.48C72.2909 23.9333 71.8909 22.16 71.8909 20.16C71.8909 18.16 72.2909 16.3867 73.0909 14.84C73.8909 13.2933 74.9976 12.0933 76.4109 11.24C77.8243 10.36 79.4509 9.92 81.2909 9.92C82.4376 9.92 83.4909 10.12 84.4509 10.52C85.4376 10.8933 86.2509 11.4267 86.8909 12.12C87.5576 12.8133 87.9843 13.6133 88.1709 14.52V25.8C87.9843 26.7067 87.5576 27.5067 86.8909 28.2C86.2509 28.8933 85.4376 29.44 84.4509 29.84C83.4909 30.2133 82.4376 30.4 81.2909 30.4ZM83.0509 23.52C84.0376 23.52 84.8243 23.2133 85.4109 22.6C86.0243 21.96 86.3309 21.1467 86.3309 20.16C86.3309 19.4933 86.1976 18.92 85.9309 18.44C85.6643 17.9333 85.2776 17.5333 84.7709 17.24C84.2909 16.9467 83.7309 16.8 83.0909 16.8C82.4509 16.8 81.8776 16.9467 81.3709 17.24C80.8909 17.5333 80.5043 17.9333 80.2109 18.44C79.9176 18.9467 79.7709 19.52 79.7709 20.16C79.7709 20.8 79.9043 21.3733 80.1709 21.88C80.4643 22.3867 80.8643 22.7867 81.3709 23.08C81.8776 23.3733 82.4376 23.52 83.0509 23.52ZM86.0909 30V24.72L87.1709 19.92L86.0909 15.16V10.32H93.7309V30H86.0909ZM106.025 30.4C104.078 30.4 102.372 29.96 100.905 29.08C99.465 28.2 98.3317 27 97.505 25.48C96.705 23.9333 96.305 22.16 96.305 20.16C96.305 18.16 96.705 16.3867 97.505 14.84C98.3317 13.2933 99.465 12.0933 100.905 11.24C102.372 10.36 104.078 9.92 106.025 9.92C107.198 9.92 108.305 10.12 109.345 10.52C110.385 10.8933 111.265 11.4267 111.985 12.12C112.732 12.8133 113.198 13.6133 113.385 14.52V25.4C113.198 26.3067 112.732 27.1467 111.985 27.92C111.265 28.6667 110.385 29.2667 109.345 29.72C108.305 30.1733 107.198 30.4 106.025 30.4ZM107.465 23.52C108.132 23.52 108.705 23.3867 109.185 23.12C109.665 22.8267 110.038 22.4267 110.305 21.92C110.598 21.4133 110.745 20.8267 110.745 20.16C110.745 19.4933 110.612 18.92 110.345 18.44C110.078 17.9333 109.692 17.5333 109.185 17.24C108.705 16.9467 108.145 16.8 107.505 16.8C106.865 16.8 106.292 16.9467 105.785 17.24C105.305 17.5333 104.918 17.9333 104.625 18.44C104.332 18.9467 104.185 19.52 104.185 20.16C104.185 20.8 104.318 21.3733 104.585 21.88C104.878 22.3867 105.278 22.7867 105.785 23.08C106.292 23.3733 106.852 23.52 107.465 23.52ZM118.145 30H110.505V24.72L111.585 19.92L110.305 15.16V0.719998H118.145V30ZM129.587 30V1.52H135.387L145.987 17.04H143.467L154.027 1.52H159.827V30H151.907V14.64L153.067 14.96L147.267 23.28H142.147L136.387 14.96L137.507 14.64V30H129.587ZM172.268 30.4C170.428 30.4 168.801 29.96 167.388 29.08C165.974 28.2 164.868 27 164.068 25.48C163.268 23.9333 162.868 22.16 162.868 20.16C162.868 18.16 163.268 16.3867 164.068 14.84C164.868 13.2933 165.974 12.0933 167.388 11.24C168.801 10.36 170.428 9.92 172.268 9.92C173.414 9.92 174.468 10.12 175.428 10.52C176.414 10.8933 177.228 11.4267 177.868 12.12C178.534 12.8133 178.961 13.6133 179.148 14.52V25.8C178.961 26.7067 178.534 27.5067 177.868 28.2C177.228 28.8933 176.414 29.44 175.428 29.84C174.468 30.2133 173.414 30.4 172.268 30.4ZM174.028 23.52C175.014 23.52 175.801 23.2133 176.388 22.6C177.001 21.96 177.308 21.1467 177.308 20.16C177.308 19.4933 177.174 18.92 176.908 18.44C176.641 17.9333 176.254 17.5333 175.748 17.24C175.268 16.9467 174.708 16.8 174.068 16.8C173.428 16.8 172.854 16.9467 172.348 17.24C171.868 17.5333 171.481 17.9333 171.188 18.44C170.894 18.9467 170.748 19.52 170.748 20.16C170.748 20.8 170.881 21.3733 171.148 21.88C171.441 22.3867 171.841 22.7867 172.348 23.08C172.854 23.3733 173.414 23.52 174.028 23.52ZM177.068 30V24.72L178.148 19.92L177.068 15.16V10.32H184.708V30H177.068ZM200.602 30.4C199.428 30.4 198.322 30.2133 197.282 29.84C196.242 29.44 195.362 28.8933 194.642 28.2C193.922 27.5067 193.455 26.7067 193.242 25.8V14.92C193.455 14.0133 193.922 13.1867 194.642 12.44C195.362 11.6667 196.242 11.0533 197.282 10.6C198.322 10.1467 199.428 9.92 200.602 9.92C202.548 9.92 204.242 10.36 205.682 11.24C207.148 12.0933 208.282 13.2933 209.082 14.84C209.908 16.3867 210.322 18.16 210.322 20.16C210.322 22.16 209.908 23.9333 209.082 25.48C208.282 27 207.148 28.2 205.682 29.08C204.242 29.96 202.548 30.4 200.602 30.4ZM199.122 23.52C199.762 23.52 200.335 23.3733 200.842 23.08C201.348 22.7867 201.735 22.3867 202.002 21.88C202.295 21.3733 202.442 20.8 202.442 20.16C202.442 19.4933 202.295 18.92 202.002 18.44C201.735 17.9333 201.348 17.5333 200.842 17.24C200.362 16.9467 199.802 16.8 199.162 16.8C198.522 16.8 197.948 16.9467 197.442 17.24C196.962 17.5067 196.575 17.8933 196.282 18.4C196.015 18.9067 195.882 19.4933 195.882 20.16C195.882 20.8 196.015 21.3733 196.282 21.88C196.548 22.3867 196.922 22.7867 197.402 23.08C197.908 23.3733 198.482 23.52 199.122 23.52ZM188.482 38.4V10.32H196.322V15.16L195.042 19.92L196.122 24.72V38.4H188.482Z" fill="white"/>
</svg>
