<svg width="64" height="64" viewBox="0 0 64 64" fill="none" xmlns="http://www.w3.org/2000/svg">
<rect width="64" height="64" rx="32" fill="white"/>
<path d="M47.68 16H16.32C16.144 16 16 16.1636 16 16.3636V19.2727C16 19.4727 16.144 19.6364 16.32 19.6364H47.68C47.856 19.6364 48 19.4727 48 19.2727V16.3636C48 16.1636 47.856 16 47.68 16ZM47.68 44.3636H16.32C16.144 44.3636 16 44.5273 16 44.7273V47.6364C16 47.8364 16.144 48 16.32 48H47.68C47.856 48 48 47.8364 48 47.6364V44.7273C48 44.5273 47.856 44.3636 47.68 44.3636ZM47.68 30.1818H16.32C16.144 30.1818 16 30.3455 16 30.5455V33.4545C16 33.6545 16.144 33.8182 16.32 33.8182H47.68C47.856 33.8182 48 33.6545 48 33.4545V30.5455C48 30.3455 47.856 30.1818 47.68 30.1818Z" fill="#584CF4"/>
</svg>
