<svg width="36" height="36" viewBox="0 0 36 36" fill="none" xmlns="http://www.w3.org/2000/svg">
<path d="M29.77 13.4901C28.7491 13.4655 27.744 13.2319 26.817 12.8036C25.8899 12.3753 25.0605 11.7615 24.38 11.0001C24.7452 12.5541 24.5331 14.188 23.783 15.5972C23.0329 17.0065 21.7961 18.095 20.303 18.6599C18.8098 19.2248 17.1623 19.2276 15.6672 18.6678C14.1722 18.108 12.9316 17.0238 12.1767 15.6171C11.4218 14.2105 11.204 12.5774 11.564 11.022C11.9239 9.46673 12.837 8.09531 14.1332 7.16333C15.4293 6.23134 17.0201 5.80236 18.609 5.9563C20.198 6.11024 21.6768 6.83661 22.77 8.00007C22.3282 6.39755 22.4374 4.69313 23.08 3.16007C21.2895 2.29536 19.309 1.89915 17.3237 2.00851C15.3384 2.11788 13.4133 2.72925 11.7287 3.78538C10.0441 4.84151 8.65501 6.30787 7.69156 8.04715C6.7281 9.78644 6.22177 11.7418 6.21997 13.7301C6.21997 18.4001 8.83997 22.3101 10.76 25.1601L11.11 25.6801C13.0202 28.4487 15.0695 31.1188 17.25 33.6801L18.01 34.5701L18.77 33.6801C20.9501 31.1186 22.9994 28.4485 24.91 25.6801L25.26 25.1501C27.17 22.3001 29.79 18.4001 29.79 13.7301C29.78 13.6501 29.77 13.5701 29.77 13.4901V13.4901Z" fill="black"/>
<path d="M18 16.17C20.06 16.17 21.73 14.5 21.73 12.44C21.73 10.3799 20.06 8.70996 18 8.70996C15.94 8.70996 14.27 10.3799 14.27 12.44C14.27 14.5 15.94 16.17 18 16.17Z" fill="black"/>
<path d="M30 11C32.7614 11 35 8.76142 35 6C35 3.23858 32.7614 1 30 1C27.2386 1 25 3.23858 25 6C25 8.76142 27.2386 11 30 11Z" fill="black"/>
</svg>
