<svg width="32" height="32" viewBox="0 0 32 32" fill="none" xmlns="http://www.w3.org/2000/svg">
<path d="M13.1765 0C11.1795 0 9.26441 0.793275 7.85237 2.20531C6.44033 3.61735 5.64706 5.53249 5.64706 7.52941C5.64706 9.52634 6.44033 11.4415 7.85237 12.8535C9.26441 14.2655 11.1795 15.0588 13.1765 15.0588C15.1734 15.0588 17.0885 14.2655 18.5006 12.8535C19.9126 11.4415 20.7059 9.52634 20.7059 7.52941C20.7059 5.53249 19.9126 3.61735 18.5006 2.20531C17.0885 0.793275 15.1734 0 13.1765 0ZM7.52941 7.52941C7.52941 6.03172 8.12437 4.59537 9.1834 3.53634C10.2424 2.47731 11.6788 1.88235 13.1765 1.88235C14.6742 1.88235 16.1105 2.47731 17.1695 3.53634C18.2286 4.59537 18.8235 6.03172 18.8235 7.52941C18.8235 9.0271 18.2286 10.4635 17.1695 11.5225C16.1105 12.5815 14.6742 13.1765 13.1765 13.1765C11.6788 13.1765 10.2424 12.5815 9.1834 11.5225C8.12437 10.4635 7.52941 9.0271 7.52941 7.52941V7.52941ZM3.78165 16.9412C3.2859 16.9392 2.79465 17.0351 2.33605 17.2234C1.87745 17.4117 1.46053 17.6886 1.10919 18.0384C0.757862 18.3881 0.47903 18.8038 0.28869 19.2616C0.098349 19.7193 0.000243787 20.2101 0 20.7059C0 23.8889 1.568 26.2889 4.01882 27.8532C6.432 29.3911 9.68471 30.1176 13.1765 30.1176C13.9482 30.1176 14.7125 30.0819 15.4541 30.0104C15.0049 29.4512 14.6151 28.8468 14.2908 28.2071C13.9256 28.2259 13.5529 28.2353 13.1765 28.2353C9.91059 28.2353 7.04565 27.5501 5.03153 26.2645C3.05506 25.0033 1.88235 23.1718 1.88235 20.7059C1.88235 19.6649 2.72565 18.8235 3.78165 18.8235H14.304C14.6504 18.1496 15.0664 17.5191 15.5426 16.9412H3.78353H3.78165ZM23.5294 32C21.2829 32 19.1283 31.1076 17.5398 29.519C15.9513 27.9305 15.0588 25.776 15.0588 23.5294C15.0588 21.2829 15.9513 19.1283 17.5398 17.5398C19.1283 15.9513 21.2829 15.0588 23.5294 15.0588C25.776 15.0588 27.9305 15.9513 29.519 17.5398C31.1076 19.1283 32 21.2829 32 23.5294C32 25.776 31.1076 27.9305 29.519 29.519C27.9305 31.1076 25.776 32 23.5294 32V32ZM24.704 28.2447C24.7103 28.0864 24.6846 27.9284 24.6284 27.7802C24.5722 27.6321 24.4866 27.4968 24.3768 27.3826C24.2671 27.2683 24.1353 27.1774 23.9895 27.1153C23.8438 27.0532 23.6869 27.0212 23.5285 27.0212C23.37 27.0212 23.2132 27.0532 23.0674 27.1153C22.9216 27.1774 22.7899 27.2683 22.6801 27.3826C22.5703 27.4968 22.4848 27.6321 22.4285 27.7802C22.3723 27.9284 22.3466 28.0864 22.3529 28.2447C22.3529 28.5567 22.4769 28.856 22.6975 29.0766C22.9182 29.2972 23.2174 29.4212 23.5294 29.4212C23.8414 29.4212 24.1407 29.2972 24.3613 29.0766C24.5819 28.856 24.7059 28.5567 24.7059 28.2447H24.704ZM27.0193 21.5586C27.0193 19.4805 25.4701 17.888 23.5294 17.888C21.5567 17.888 20.0207 19.4278 20.0414 21.568C20.0426 21.6916 20.0682 21.8137 20.1167 21.9275C20.1651 22.0412 20.2355 22.1442 20.3237 22.2308C20.412 22.3173 20.5164 22.3856 20.6311 22.4317C20.7458 22.4779 20.8684 22.501 20.992 22.4998C21.1156 22.4985 21.2377 22.473 21.3515 22.4245C21.4652 22.3761 21.5682 22.3057 21.6548 22.2174C21.7413 22.1292 21.8096 22.0247 21.8557 21.9101C21.9019 21.7954 21.925 21.6728 21.9238 21.5492C21.9125 20.4593 22.6014 19.7704 23.5294 19.7704C24.4179 19.7704 25.1351 20.5082 25.1351 21.5586C25.1351 21.9388 25.0033 22.1515 24.4574 22.5826L23.936 22.9873C22.9835 23.7478 22.5882 24.3369 22.5882 25.4118C22.5878 25.647 22.6754 25.8738 22.8339 26.0476C22.9924 26.2214 23.2101 26.3296 23.4444 26.3508C23.6786 26.3721 23.9123 26.3049 24.0994 26.1624C24.2866 26.02 24.4136 25.8126 24.4555 25.5812L24.4762 25.2875C24.5082 25.0089 24.6645 24.8094 25.1275 24.4442L25.6489 24.0395C26.6146 23.2678 27.0174 22.6616 27.0174 21.5586H27.0193Z" fill="black"/>
</svg>
