<svg width="32" height="32" viewBox="0 0 32 32" fill="none" xmlns="http://www.w3.org/2000/svg">
<path d="M16.0001 26.88C9.98412 26.88 5.12012 22.016 5.12012 16C5.12012 9.984 9.98412 5.12 16.0001 5.12C22.0161 5.12 26.8801 9.984 26.8801 16C26.8801 22.016 22.0161 26.88 16.0001 26.88ZM16.0001 6.4C10.6881 6.4 6.40012 10.688 6.40012 16C6.40012 21.312 10.6881 25.6 16.0001 25.6C21.3121 25.6 25.6001 21.312 25.6001 16C25.6001 10.688 21.3121 6.4 16.0001 6.4Z" fill="black"/>
<path d="M15.3601 20.48H16.6401V21.76H15.3601V20.48ZM16.3841 19.2H15.6161L15.3601 14.08V10.24H16.6401V14.08L16.3841 19.2Z" fill="black"/>
</svg>
