<svg width="32" height="32" viewBox="0 0 32 32" fill="none" xmlns="http://www.w3.org/2000/svg">
<path d="M16.3528 5.63298e-05C10.7947 -0.0148274 5.90358 2.92098 3.10815 7.35632C2.98423 7.55353 3.12273 7.814 3.35234 7.814H5.91452C6.08946 7.814 6.25347 7.73586 6.36281 7.59818C6.61793 7.2819 6.89128 6.97679 7.17921 6.68656C8.36736 5.47726 9.74868 4.5247 11.2867 3.86238C12.8758 3.17773 14.5669 2.82796 16.3127 2.82796C18.0584 2.82796 19.7496 3.174 21.3386 3.86238C22.8767 4.5247 24.258 5.47726 25.4461 6.68656C26.6343 7.89586 27.5637 9.30609 28.2161 10.8726C28.8903 12.4949 29.2293 14.2177 29.2293 16C29.2293 17.7824 28.8867 19.5051 28.2161 21.1275C27.5673 22.694 26.6343 24.1042 25.4461 25.3135C24.258 26.5228 22.8767 27.4754 21.3386 28.1377C19.7483 28.8234 18.039 29.1752 16.3127 29.1721C14.5669 29.1721 12.8758 28.8223 11.2867 28.1377C9.7517 27.476 8.35681 26.517 7.17921 25.3135C6.89128 25.0195 6.62158 24.7144 6.36281 24.4019C6.25347 24.2642 6.08582 24.1861 5.91452 24.1861H3.35234C3.12273 24.1861 2.98058 24.4465 3.10815 24.6437C5.89994 29.0679 10.7692 32 16.3127 32C24.9213 32 31.9117 24.9265 31.9992 16.1637C32.0867 7.25958 25.0853 0.0223819 16.3528 5.63298e-05ZM11.7357 20.1675V17.3396H0.291571C0.131207 17.3396 0 17.2056 0 17.0419V14.9582C0 14.7944 0.131207 14.6605 0.291571 14.6605H11.7357V11.8326C11.7357 11.5833 12.02 11.4419 12.2095 11.5982L17.3813 15.7656C17.4161 15.7935 17.4443 15.829 17.4637 15.8696C17.4831 15.9103 17.4931 15.9548 17.4931 16C17.4931 16.0452 17.4831 16.0898 17.4637 16.1304C17.4443 16.171 17.4161 16.2066 17.3813 16.2344L12.2095 20.4019C12.02 20.5544 11.7357 20.4168 11.7357 20.1675Z" fill="black"/>
</svg>
