<svg width="32" height="32" viewBox="0 0 32 32" fill="none" xmlns="http://www.w3.org/2000/svg">
<path d="M6.66667 14.6667H17.3333V17.3333H6.66667V21.3333L0 16L6.66667 10.6667V14.6667ZM5.33333 24H8.944C10.4836 25.3578 12.3822 26.2425 14.4122 26.5479C16.4421 26.8534 18.517 26.5666 20.388 25.722C22.259 24.8774 23.8465 23.5109 24.9601 21.7864C26.0737 20.0619 26.666 18.0528 26.666 16C26.666 13.9472 26.0737 11.9381 24.9601 10.2136C23.8465 8.48911 22.259 7.12259 20.388 6.278C18.517 5.43341 16.4421 5.14663 14.4122 5.45208C12.3822 5.75752 10.4836 6.64222 8.944 8H5.33333C6.57421 6.3429 8.18444 4.99801 10.0361 4.07219C11.8877 3.14636 13.9298 2.66511 16 2.66667C23.364 2.66667 29.3333 8.636 29.3333 16C29.3333 23.364 23.364 29.3333 16 29.3333C13.9298 29.3349 11.8877 28.8536 10.0361 27.9278C8.18444 27.002 6.57421 25.6571 5.33333 24V24Z" fill="black"/>
</svg>
