<svg width="26" height="30" viewBox="0 0 26 30" fill="none" xmlns="http://www.w3.org/2000/svg">
<path d="M12.8 18.9333C15.1531 18.9333 17.0667 17.0197 17.0667 14.6667C17.0667 12.3136 15.1531 10.4 12.8 10.4C10.4469 10.4 8.53333 12.3136 8.53333 14.6667C8.53333 17.0197 10.4469 18.9333 12.8 18.9333ZM12.8 12.5333C13.9765 12.5333 14.9333 13.4901 14.9333 14.6667C14.9333 15.8432 13.9765 16.8 12.8 16.8C11.6235 16.8 10.6667 15.8432 10.6667 14.6667C10.6667 13.4901 11.6235 12.5333 12.8 12.5333Z" fill="#584CF4"/>
<path d="M12.1814 27.2683C12.3619 27.3972 12.5782 27.4665 12.8 27.4665C13.0219 27.4665 13.2382 27.3972 13.4187 27.2683C13.743 27.0389 21.3643 21.536 21.3334 14.6667C21.3334 9.9616 17.5051 6.13333 12.8 6.13333C8.09496 6.13333 4.2667 9.9616 4.2667 14.6613C4.23576 21.536 11.8571 27.0389 12.1814 27.2683ZM12.8 8.26667C16.3296 8.26667 19.2 11.1371 19.2 14.672C19.2224 19.4059 14.5195 23.6565 12.8 25.0507C11.0816 23.6555 6.37763 19.4037 6.40003 14.6667C6.40003 11.1371 9.27043 8.26667 12.8 8.26667Z" fill="#584CF4"/>
</svg>
