<svg width="34" height="34" viewBox="0 0 34 34" fill="none" xmlns="http://www.w3.org/2000/svg">
<path d="M17 19.8333C20.1252 19.8333 22.6667 17.2918 22.6667 14.1667C22.6667 11.0415 20.1252 8.5 17 8.5C13.8749 8.5 11.3334 11.0415 11.3334 14.1667C11.3334 17.2918 13.8749 19.8333 17 19.8333ZM17 11.3333C18.5626 11.3333 19.8334 12.6041 19.8334 14.1667C19.8334 15.7292 18.5626 17 17 17C15.4375 17 14.1667 15.7292 14.1667 14.1667C14.1667 12.6041 15.4375 11.3333 17 11.3333Z" fill="black"/>
<path d="M16.1783 30.9031C16.4181 31.0743 16.7053 31.1664 17 31.1664C17.2946 31.1664 17.5819 31.0743 17.8216 30.9031C18.2523 30.5985 28.3744 23.2899 28.3333 14.1666C28.3333 7.91767 23.2489 2.83325 17 2.83325C10.751 2.83325 5.66663 7.91767 5.66663 14.1595C5.62555 23.2899 15.7476 30.5985 16.1783 30.9031ZM17 5.66659C21.6877 5.66659 25.5 9.47884 25.5 14.1737C25.5297 20.4608 19.2836 26.1063 17 27.9578C14.7177 26.1048 8.47021 20.458 8.49996 14.1666C8.49996 9.47884 12.3122 5.66659 17 5.66659Z" fill="black"/>
</svg>
