<svg width="32" height="32" viewBox="0 0 32 32" fill="none" xmlns="http://www.w3.org/2000/svg">
<path d="M28 6.66667C26.52 6.2 24.8934 6 23.3334 6C20.7334 6 17.9334 6.53333 16 8C14.0667 6.53333 11.2667 6 8.66671 6C6.06671 6 3.26671 6.53333 1.33337 8V27.5333C1.33337 27.8667 1.66671 28.2 2.00004 28.2C2.13337 28.2 2.20004 28.1333 2.33337 28.1333C4.13337 27.2667 6.73337 26.6667 8.66671 26.6667C11.2667 26.6667 14.0667 27.2 16 28.6667C17.8 27.5333 21.0667 26.6667 23.3334 26.6667C25.5334 26.6667 27.8 27.0667 29.6667 28.0667C29.8 28.1333 29.8667 28.1333 30 28.1333C30.3334 28.1333 30.6667 27.8 30.6667 27.4667V8C29.8667 7.4 29 7 28 6.66667ZM4.00004 24.6667V9.33333C5.46671 8.86667 7.06671 8.66667 8.66671 8.66667C10.4534 8.66667 12.84 9.21333 14.6667 9.98667V25.32C12.84 24.5467 10.4534 24 8.66671 24C7.06671 24 5.46671 24.2 4.00004 24.6667ZM28 24.6667C26.5334 24.2 24.9334 24 23.3334 24C21.5467 24 19.16 24.5467 17.3334 25.32V9.98667C19.16 9.2 21.5467 8.66667 23.3334 8.66667C24.9334 8.66667 26.5334 8.86667 28 9.33333V24.6667Z" fill="black"/>
<path opacity="0.3" d="M14.6667 9.98675C12.84 9.21341 10.4533 8.66675 8.66667 8.66675C7.06667 8.66675 5.46667 8.86675 4 9.33341V24.6667C5.46667 24.2001 7.06667 24.0001 8.66667 24.0001C10.4533 24.0001 12.84 24.5467 14.6667 25.3201V9.98675Z" fill="black"/>
<path d="M23.3333 14C24.5066 14 25.64 14.12 26.6666 14.3467V12.32C25.6133 12.12 24.48 12 23.3333 12C21.6266 12 20.0533 12.2133 18.6666 12.6267V14.72C19.9866 14.2533 21.5733 14 23.3333 14ZM23.3333 17.5467C24.5066 17.5467 25.64 17.6667 26.6666 17.8933V15.8667C25.6133 15.6667 24.48 15.5467 23.3333 15.5467C21.6266 15.5467 20.0533 15.76 18.6666 16.1733V18.2667C19.9866 17.8133 21.5733 17.5467 23.3333 17.5467ZM23.3333 21.1067C24.5066 21.1067 25.64 21.2267 26.6666 21.4533V19.4267C25.6133 19.2267 24.48 19.1067 23.3333 19.1067C21.6266 19.1067 20.0533 19.32 18.6666 19.7333V21.8267C19.9866 21.36 21.5733 21.1067 23.3333 21.1067V21.1067Z" fill="black"/>
</svg>
