<svg width="125" height="108" viewBox="0 0 125 108" fill="none" xmlns="http://www.w3.org/2000/svg">
<path d="M55.9167 8.99998C34.0833 11.664 16.9167 25.56 12.25 44.352C11.2083 48.492 11.2083 57.708 12.25 61.848C15.625 75.384 25.4167 86.544 39.375 92.7C47.2083 96.12 53.1667 97.308 62.7083 97.308C67.8333 97.308 70.6667 97.164 72.9167 96.696C93.6667 92.664 108.75 79.632 113.167 61.848C114.208 57.708 114.208 48.492 113.167 44.352C108.708 26.496 93.5 13.356 72.7083 9.50398C69.2083 8.85598 59.5833 8.56798 55.9167 8.99998ZM72.0417 11.34C81.4167 12.888 90.5 17.1 97.4583 23.076C109.75 33.732 114.667 49.104 110.417 63.576C103.708 86.22 76.7083 100.08 50.625 94.32C24.4167 88.524 8.33333 65.196 15 42.66C20.0417 25.704 36.7917 12.996 57.0833 10.836C60.9583 10.404 67.75 10.656 72.0417 11.34Z" fill="black"/>
<path d="M25.4167 54.18V60.12H63.5417H101.667V54.18V48.24H63.5417H25.4167V54.18Z" fill="black"/>
</svg>
