<svg width="32" height="32" viewBox="0 0 32 32" fill="none" xmlns="http://www.w3.org/2000/svg">
<path d="M28 7.66667C28 6.69421 27.6137 5.76158 26.9261 5.07394C26.2384 4.38631 25.3058 4 24.3333 4H7.66667C6.69421 4 5.76158 4.38631 5.07394 5.07394C4.38631 5.76158 4 6.69421 4 7.66667V24.3333C4 25.3058 4.38631 26.2384 5.07394 26.9261C5.76158 27.6137 6.69421 28 7.66667 28H10.7333C10.597 27.3275 10.6706 26.6293 10.944 26H7.66667C6.74667 26 6 25.2533 6 24.3333V7.66667C6 6.74667 6.74667 6 7.66667 6H24.3333C25.2533 6 26 6.74667 26 7.66667V24.2773C26.6289 24.0021 27.3276 23.9285 28 24.0667V7.66667ZM9 15.3333H19C19.2534 15.3334 19.4973 15.4297 19.6824 15.6026C19.8675 15.7756 19.9801 16.0124 19.9974 16.2652C20.0146 16.5179 19.9353 16.7679 19.7754 16.9644C19.6155 17.1609 19.387 17.2895 19.136 17.324L19 17.3333H9C8.74664 17.3333 8.50275 17.237 8.31761 17.064C8.13248 16.8911 8.0199 16.6543 8.00263 16.4015C7.98536 16.1487 8.06469 15.8988 8.22458 15.7023C8.38447 15.5057 8.613 15.3772 8.864 15.3427L9 15.3333ZM23 20.6667H9L8.864 20.676C8.613 20.7105 8.38447 20.8391 8.22458 21.0356C8.06469 21.2321 7.98536 21.4821 8.00263 21.7348C8.0199 21.9876 8.13248 22.2244 8.31761 22.3974C8.50275 22.5703 8.74664 22.6666 9 22.6667H23L23.136 22.6573C23.387 22.6228 23.6155 22.4943 23.7754 22.2977C23.9353 22.1012 24.0146 21.8513 23.9974 21.5985C23.9801 21.3457 23.8675 21.1089 23.6824 20.936C23.4973 20.763 23.2534 20.6667 23 20.6667V20.6667ZM9 10H23C23.2534 10.0001 23.4973 10.0963 23.6824 10.2693C23.8675 10.4423 23.9801 10.6791 23.9974 10.9318C24.0146 11.1846 23.9353 11.4345 23.7754 11.6311C23.6155 11.8276 23.387 11.9561 23.136 11.9907L23 12H9C8.74664 11.9999 8.50275 11.9037 8.31761 11.7307C8.13248 11.5577 8.0199 11.3209 8.00263 11.0682C7.98536 10.8154 8.06469 10.5655 8.22458 10.3689C8.38447 10.1724 8.613 10.0439 8.864 10.0093L9 10ZM16 27.3333C16 27.8638 15.7893 28.3725 15.4142 28.7475C15.0391 29.1226 14.5304 29.3333 14 29.3333C13.4696 29.3333 12.9609 29.1226 12.5858 28.7475C12.2107 28.3725 12 27.8638 12 27.3333C12 26.8029 12.2107 26.2942 12.5858 25.9191C12.9609 25.544 13.4696 25.3333 14 25.3333C14.5304 25.3333 15.0391 25.544 15.4142 25.9191C15.7893 26.2942 16 26.8029 16 27.3333ZM20.6667 29.3333C21.1971 29.3333 21.7058 29.1226 22.0809 28.7475C22.456 28.3725 22.6667 27.8638 22.6667 27.3333C22.6667 26.8029 22.456 26.2942 22.0809 25.9191C21.7058 25.544 21.1971 25.3333 20.6667 25.3333C20.1362 25.3333 19.6275 25.544 19.2525 25.9191C18.8774 26.2942 18.6667 26.8029 18.6667 27.3333C18.6667 27.8638 18.8774 28.3725 19.2525 28.7475C19.6275 29.1226 20.1362 29.3333 20.6667 29.3333V29.3333ZM27.3333 29.3333C27.8638 29.3333 28.3725 29.1226 28.7475 28.7475C29.1226 28.3725 29.3333 27.8638 29.3333 27.3333C29.3333 26.8029 29.1226 26.2942 28.7475 25.9191C28.3725 25.544 27.8638 25.3333 27.3333 25.3333C26.8029 25.3333 26.2942 25.544 25.9191 25.9191C25.544 26.2942 25.3333 26.8029 25.3333 27.3333C25.3333 27.8638 25.544 28.3725 25.9191 28.7475C26.2942 29.1226 26.8029 29.3333 27.3333 29.3333Z" fill="#584CF4"/>
</svg>
