<svg width="32" height="33" viewBox="0 0 32 33" fill="none" xmlns="http://www.w3.org/2000/svg">
<path fill-rule="evenodd" clip-rule="evenodd" d="M21.3333 12.6469C21.3333 14.0614 20.7714 15.418 19.7712 16.4182C18.771 17.4184 17.4144 17.9803 16 17.9803C14.5855 17.9803 13.2289 17.4184 12.2287 16.4182C11.2285 15.418 10.6666 14.0614 10.6666 12.6469C10.6666 11.2324 11.2285 9.87589 12.2287 8.8757C13.2289 7.8755 14.5855 7.3136 16 7.3136C17.4144 7.3136 18.771 7.8755 19.7712 8.8757C20.7714 9.87589 21.3333 11.2324 21.3333 12.6469ZM18.6666 12.6469C18.6666 13.3542 18.3857 14.0325 17.8856 14.5325C17.3855 15.0326 16.7072 15.3136 16 15.3136C15.2927 15.3136 14.6144 15.0326 14.1143 14.5325C13.6142 14.0325 13.3333 13.3542 13.3333 12.6469C13.3333 11.9397 13.6142 11.2614 14.1143 10.7613C14.6144 10.2612 15.2927 9.98027 16 9.98027C16.7072 9.98027 17.3855 10.2612 17.8856 10.7613C18.3857 11.2614 18.6666 11.9397 18.6666 12.6469Z" fill="black"/>
<path fill-rule="evenodd" clip-rule="evenodd" d="M16 1.98035C7.90004 1.98035 1.33337 8.54701 1.33337 16.647C1.33337 24.747 7.90004 31.3137 16 31.3137C24.1 31.3137 30.6667 24.747 30.6667 16.647C30.6667 8.54701 24.1 1.98035 16 1.98035ZM4.00004 16.647C4.00004 19.4337 4.95071 21.999 6.54404 24.0363C7.66302 22.5669 9.10657 21.376 10.762 20.5568C12.4173 19.7375 14.2397 19.3121 16.0867 19.3137C17.9098 19.312 19.7093 19.7264 21.3479 20.5254C22.9866 21.3244 24.4213 22.4869 25.5427 23.9243C26.698 22.4092 27.4758 20.6406 27.8119 18.7651C28.148 16.8896 28.0326 14.9611 27.4754 13.139C26.9181 11.3169 25.935 9.65374 24.6074 8.28706C23.2797 6.92038 21.6457 5.88949 19.8406 5.27969C18.0354 4.66989 16.111 4.49871 14.2265 4.78031C12.3421 5.06191 10.5518 5.7882 9.00373 6.89909C7.4557 8.00997 6.19446 9.47351 5.32435 11.1686C4.45424 12.8637 4.00028 14.7416 4.00004 16.647ZM16 28.647C13.2453 28.6511 10.5737 27.7035 8.43737 25.9643C9.29728 24.7333 10.4418 23.7282 11.7736 23.0346C13.1054 22.341 14.5851 21.9793 16.0867 21.9803C17.5696 21.9792 19.0314 22.3318 20.3506 23.0089C21.6699 23.686 22.8085 24.6682 23.672 25.8737C21.5191 27.6693 18.8035 28.6509 16 28.647Z" fill="black"/>
</svg>
