<svg width="48" height="48" viewBox="0 0 48 48" fill="none" xmlns="http://www.w3.org/2000/svg">
<g clip-path="url(#clip0_171_616)">
<path d="M35.7135 32.5725C35.7135 36.5047 27.72 39.696 17.8575 39.696C7.9965 39.696 0 36.5047 0 32.5725C0 28.635 7.9965 25.446 17.8575 25.446C27.72 25.446 35.7135 28.635 35.7135 32.5725Z" fill="#A6A8AB"/>
<path d="M29.8665 40.773C39.7281 40.773 47.7225 37.5837 47.7225 33.6495C47.7225 29.7153 39.7281 26.526 29.8665 26.526C20.0049 26.526 12.0105 29.7153 12.0105 33.6495C12.0105 37.5837 20.0049 40.773 29.8665 40.773Z" fill="#A6A8AB"/>
<path d="M24.5078 38.3325C16.9553 38.3325 10.1828 36.6855 5.59279 34.08C5.54704 34.4318 5.51929 34.7873 5.51929 35.148C5.51929 41.9505 13.8885 47.4653 24.2115 47.4653C34.536 47.4653 42.9053 41.9498 42.9053 35.148C42.9053 34.8885 42.8903 34.6335 42.864 34.3793C38.2958 36.81 31.761 38.3325 24.5063 38.3325" fill="#D0D2D3"/>
<path d="M14.9003 37.3912C11.2965 36.6517 8.11275 35.5132 5.59425 34.0822C5.5485 34.434 5.52075 34.7895 5.52075 35.1502C5.52075 41.9527 13.89 47.4675 24.213 47.4675C25.0268 47.4675 25.8263 47.4285 26.6145 47.3625C20.346 45.7365 15.735 41.9505 14.9003 37.3912Z" fill="#B6B6B7"/>
<path d="M45.09 29.2035C45.09 33.8018 35.742 37.5285 24.2175 37.5285C12.6893 37.5285 3.34351 33.7965 3.34351 29.2035C3.34351 24.6038 12.6893 20.871 24.2175 20.871C35.742 20.871 45.09 24.6008 45.09 29.2035Z" fill="#D0D2D3"/>
<path d="M24.0674 36.0067C33.9295 36.0067 41.9242 32.8164 41.9242 28.881C41.9242 24.9456 33.9295 21.7552 24.0674 21.7552C14.2054 21.7552 6.21069 24.9456 6.21069 28.881C6.21069 32.8164 14.2054 36.0067 24.0674 36.0067Z" fill="#A6A8AB"/>
<path d="M10.32 23.2117C9.02704 24.354 7.67179 25.4122 6.33079 26.4967C5.13754 27.4582 6.66154 29.2252 7.91254 28.5435C9.07954 27.9112 10.2375 27.291 11.4728 26.8005C10.9815 26.16 10.488 25.5217 9.99754 24.8812C9.6738 25.406 9.31103 25.9057 8.91229 26.376C8.05354 27.4575 9.14779 29.2867 10.494 28.4242C11.385 27.8557 12.2618 27.2872 13.191 26.7832L11.4068 25.0005C11.088 25.533 10.839 26.0737 10.5848 26.6415C10.1085 27.6945 11.1893 29.2762 12.369 28.4257C13.3275 27.7372 14.2343 27.0353 15.096 26.2268C16.254 25.1475 14.79 23.6017 13.5158 24.1785C13.4438 24.2565 13.3763 24.3345 13.3073 24.4132C13.1513 25.0095 12.9945 25.6042 12.84 26.1975C13.3555 25.8713 13.9241 25.6378 14.52 25.5075C15.8003 25.137 15.7313 23.3955 14.52 22.9927C14.4023 22.953 14.286 22.9132 14.169 22.875V25.3912C14.751 25.1715 15.3195 25.0425 15.93 24.9225C15.5933 24.1267 15.2595 23.3302 14.9235 22.5367C12.8078 23.5822 6.10279 25.2562 8.47504 28.8967C8.84854 28.239 9.22504 27.5872 9.60154 26.9317C9.36529 26.9085 9.12979 26.8852 8.89354 26.8605C7.44004 26.553 6.62104 28.431 7.88779 29.247C8.33029 29.5642 8.79904 29.8395 9.29329 30.069C9.51379 29.2575 9.73279 28.4475 9.95179 27.636C9.40354 27.6712 8.85829 27.7095 8.31154 27.7537C6.62254 27.882 6.64129 30.2092 8.31154 30.363C10.0358 30.5197 12.279 30.9885 13.8893 30.0975C14.4015 29.811 14.6888 29.559 15.0713 29.1375C15.3405 28.8397 15.624 28.5585 15.912 28.2795C17.22 27.0173 15.5625 28.65 15.5678 27.6502L17.532 26.5245C17.3348 26.4075 17.1398 26.2882 16.944 26.172C16.7235 26.982 16.506 27.792 16.284 28.6035C16.731 28.7797 17.175 28.9553 17.6198 29.1278L18.2798 26.6962C17.5782 26.6145 16.8694 26.6145 16.1678 26.6962C15.1725 26.808 14.5575 27.7162 15.0405 28.6605C15.8978 30.3322 17.8493 30.9795 19.578 31.3687C21.2168 31.7437 21.9105 29.2275 20.2718 28.8532C19.2503 28.6215 17.826 28.374 17.3003 27.3457C16.9223 27.9975 16.5503 28.6522 16.1715 29.3077C16.8733 29.2282 17.5818 29.2282 18.2835 29.3077C19.6553 29.4607 19.9508 27.5107 18.942 26.8755C18.066 26.3265 17.3108 26.1082 16.287 25.9942C14.9363 25.8427 14.5958 27.804 15.63 28.4235L16.2165 28.7767C17.0738 29.2927 18.1733 28.629 18.1793 27.6495C18.1943 25.6522 16.7625 24.5685 14.9663 25.7017C14.2223 26.1735 13.605 26.8725 13.023 27.5197C12.117 28.524 9.51454 27.861 8.31529 27.753V30.3623C8.8618 30.3208 9.40856 30.2828 9.95554 30.2483C11.1683 30.1665 11.844 28.455 10.6155 27.816C10.1219 27.587 9.65107 27.3117 9.20929 26.994C8.87254 27.7905 8.53729 28.584 8.20579 29.3797C8.66618 29.4796 9.13507 29.5351 9.60604 29.5455C10.5645 29.5665 11.2703 28.4055 10.731 27.5797C10.4033 27.0742 15.6203 25.0995 16.2465 24.792C17.646 24.1027 16.6155 22.1347 15.2393 22.407C14.6325 22.5262 14.064 22.6582 13.4798 22.8757C12.2768 23.3272 12.2055 24.9667 13.4798 25.392C13.599 25.431 13.7145 25.4707 13.8323 25.5075V22.9927C12.9863 23.2417 12.2655 23.4645 11.526 23.9437C10.989 24.2947 10.6103 25.1475 11.0588 25.7295C12.1388 27.1357 13.2675 27.1462 14.8388 26.4322C14.3108 25.7512 13.7828 25.0672 13.257 24.384C12.5634 25.0275 11.8288 25.6255 11.058 26.1742L12.8438 27.96C13.0995 27.393 13.3448 26.8507 13.6658 26.3182C14.3565 25.167 13.0058 23.922 11.8785 24.5325C10.9493 25.038 10.0733 25.608 9.18304 26.1742L10.7618 28.2225C11.2853 27.561 11.7938 26.9032 12.258 26.199C12.8535 25.2952 11.8553 23.8552 10.7828 24.2827C9.33679 24.8602 7.96804 25.5487 6.60079 26.2882C7.12729 26.9737 7.65604 27.6585 8.18404 28.341C9.52279 27.2595 10.878 26.1975 12.1703 25.0567C13.434 23.9422 11.5808 22.1062 10.3238 23.2132" fill="#00A551"/>
<path d="M13.8389 30.2175C14.6354 31.098 15.6029 31.4288 16.7579 31.608C16.8734 30.7538 16.9889 29.8988 17.1059 29.0445C16.8587 29.0353 16.6166 28.9712 16.3972 28.857C16.2794 29.7128 16.1662 30.567 16.0507 31.4235C17.6542 31.4243 20.6414 31.6035 21.1409 29.499C21.7387 26.9828 19.8667 24.9315 17.6879 24.051L17.3392 26.6138H17.5747C19.1114 26.6138 19.2644 24.5355 17.9212 24.051C17.1419 23.769 16.3942 23.5043 15.6562 23.1278C15.4357 23.9363 15.2182 24.7478 14.9962 25.56C15.7267 25.5975 18.6734 26.3423 18.4304 27.423C18.2902 28.041 18.5302 28.5383 19.0282 28.8983C20.6564 30.066 22.2629 31.4078 24.2654 31.8443C25.7474 32.1683 26.4899 30.2985 25.2712 29.4593C25.0321 29.2962 24.7686 29.1724 24.4904 29.0925V31.608L25.3117 31.3733C26.9249 30.9135 26.2364 28.3928 24.6164 28.8578C24.3442 28.938 24.0697 29.0175 23.7944 29.0925C22.5299 29.4548 22.5757 31.2255 23.7944 31.608C23.8484 31.6433 23.9017 31.6785 23.9527 31.7138C24.2879 30.9165 24.6247 30.123 24.9592 29.3273C23.2004 28.941 21.7762 27.6705 20.3474 26.6453L20.9459 28.1198C21.6749 24.8768 17.6504 23.091 14.9954 22.9485C13.7152 22.881 13.1887 24.7965 14.3369 25.3815C15.2744 25.8563 16.2434 26.2103 17.2297 26.5673C17.3444 25.7123 17.4592 24.8588 17.5769 24.0023H17.3414C15.7687 24.0023 15.6967 26.0438 16.9949 26.5673C17.5477 26.7908 19.4962 28.4445 18.2324 28.7528C17.5552 28.9193 16.7452 28.8165 16.0529 28.812C14.4697 28.8113 14.4202 30.8445 15.7049 31.3733C16.1579 31.5623 16.6237 31.608 17.1089 31.6553C18.5669 31.8015 18.9052 29.319 17.4554 29.0925C16.7572 28.983 16.2022 28.9425 15.6854 28.3748C14.5544 27.1238 12.7132 28.974 13.8419 30.2175" fill="#00A551"/>
<path d="M39.135 29.2365C38.0145 29.7195 36.891 30.1875 35.787 30.7073C34.626 31.2563 35.1743 33.2385 36.4455 33.1403C37.6995 33.0405 38.9033 32.7683 40.14 32.5545L38.871 30.3773C37.2983 31.764 34.263 31.4633 32.2988 31.4663C30.8542 31.4678 30.4778 33.7313 31.95 34.0298C33.2978 34.3005 34.5068 34.2765 35.8553 34.0298C37.0995 33.7995 37.1153 31.7273 35.8553 31.5135C33.372 31.0898 30.9382 31.3215 28.4377 31.4475C25.7558 31.587 23.0663 31.119 20.3843 31.065C18.6765 31.0328 18.741 33.5183 20.3843 33.6743C21.873 33.816 23.2718 33.8558 24.7455 33.6285C25.9928 33.438 26.0047 31.2893 24.7455 31.113C21.9983 30.7245 17.6873 30.0255 15.447 32.1165C15.9735 32.0475 16.5007 31.9815 17.0295 31.9118C15.7402 31.365 14.5808 30.717 13.158 30.6653C12.2408 30.6315 11.4307 31.83 12.0322 32.6273C12.2985 32.9858 12.5677 33.3405 12.8317 33.6975C13.4288 33.1028 14.0235 32.5095 14.6175 31.9118C12.6788 30.8588 11.034 29.6543 8.74125 29.7263C7.47375 29.7675 6.9195 31.5023 8.08275 32.1578C12.3645 34.5765 17.475 35.8748 22.3928 35.8178C24.0802 35.7968 24.0698 33.2708 22.3928 33.2085C21.498 33.1718 20.6085 33.1073 19.713 33.0735C18.258 33.0165 17.9137 35.3558 19.368 35.637C23.319 36.402 27.2183 36.09 31.1708 35.5043C32.6595 35.2823 32.253 32.9393 30.825 32.9393H29.7517V35.5485C31.4167 35.544 33.3023 35.6055 34.8128 34.7738C35.3835 34.4603 38.4758 31.353 38.7308 31.491C39.3593 31.8278 40.1483 31.6515 40.5165 31.0223C40.8315 30.483 41.1713 29.97 41.4525 29.4135H39.2025C39.5483 29.811 39.816 30.2588 40.005 30.7523C40.6875 30.225 41.3723 29.6993 42.0548 29.172C41.1548 28.0643 40.122 27.4688 38.8035 26.9625C38.235 26.745 37.632 27.1095 37.3283 27.5618C37.0965 27.8468 36.921 28.1573 36.792 28.5C37.476 28.4123 38.1578 28.323 38.8403 28.2345C37.9043 27.417 37.2308 26.4255 36.168 25.7558C35.0978 25.0845 33.6135 26.4563 34.3823 27.54C34.6613 27.9345 34.9215 28.2578 35.2568 28.608C35.679 27.8828 36.102 27.1545 36.5265 26.4285C35.268 26.1533 34.1258 25.7573 32.8305 25.7138C32.0025 25.683 31.323 26.5725 31.572 27.363C31.7145 27.867 31.893 28.359 32.1068 28.8375L33.0195 27.2295C32.6918 27.351 32.4495 27.483 32.178 27.6998C31.719 28.0665 31.713 28.8098 31.9725 29.28C32.178 29.6243 32.3565 29.982 32.508 30.3525C32.9985 29.712 33.4928 29.0738 33.981 28.4348C32.4968 28.1783 31.4527 26.5748 30.366 25.6268C29.3092 24.708 28.1745 24.2798 26.8103 24.1043C25.3103 23.9138 25.0995 26.2725 26.4638 26.667C28.257 27.186 30.0368 27.3585 31.8975 27.3833C33.6 27.408 33.552 24.9 31.8975 24.7733C29.2395 24.5708 28.7018 26.1473 27.093 27.8333L29.3197 28.7558C29.2148 27.7568 31.2525 27.1875 31.9193 26.9558C33.5745 26.3715 34.9148 26.6453 36.4568 27.4733C37.941 28.2683 39.2573 26.0153 37.7745 25.2158C35.3318 23.9048 33.2775 23.7083 30.6787 24.6255C28.8997 25.2518 26.4758 26.5298 26.7113 28.7513C26.8238 29.811 28.0823 30.57 28.938 29.673C29.9115 28.6545 30.261 27.2528 31.8983 27.3773V24.7673C30.2708 24.7463 28.7265 24.6 27.1582 24.1463L26.811 26.7098C29.5125 27.0548 30.5535 30.4748 33.2918 30.9458C34.4648 31.1468 35.259 30.1095 34.7655 29.0265C34.6154 28.6568 34.4366 28.2995 34.2308 27.9578C34.161 28.4828 34.0935 29.01 34.0268 29.5373C33.9218 29.6048 33.8213 29.6723 33.72 29.739C34.3253 29.5185 34.9118 28.8323 34.6298 28.134C34.4129 27.6576 34.2341 27.1649 34.095 26.6603C33.6743 27.2093 33.2565 27.762 32.835 28.3118C33.8745 28.3493 34.833 28.716 35.8335 28.9335C37.0995 29.211 38.0355 27.7268 37.1033 26.754C36.948 26.577 36.7943 26.3955 36.6405 26.214C36.0428 26.8095 35.4495 27.405 34.8533 28.0005C35.6985 28.5293 36.2528 29.4203 36.9975 30.072C37.5773 30.5775 38.67 30.6195 39.045 29.808C39.174 29.4675 39.3525 29.154 39.5828 28.8705C39.0923 29.073 38.5995 29.2703 38.109 29.4728C39.0308 29.8245 39.5963 30.255 40.2105 31.008C41.1982 32.2253 42.8693 30.678 42.258 29.427C42.0706 28.9377 41.7987 28.485 41.4548 28.0898C40.9215 27.3578 39.6893 27.138 39.2048 28.0898C38.9205 28.6455 38.5853 29.16 38.2688 29.6993C38.862 29.541 39.4598 29.3873 40.0545 29.2305C38.595 28.4453 37.434 28.7498 36.282 29.8995C35.4765 30.6983 34.995 31.5465 34.038 32.2223C32.829 33.072 31.1625 32.9303 29.7615 32.9333C28.08 32.9363 28.08 35.5425 29.7615 35.5425H30.834L30.4867 32.9805C27.021 33.4935 23.538 33.7815 20.0723 33.1125C19.9545 33.966 19.8398 34.8218 19.722 35.6745C20.6175 35.7113 21.5063 35.7758 22.4018 35.8118V33.2025C17.9423 33.252 13.293 32.0925 9.4065 29.8995C9.189 30.7125 8.9685 31.5218 8.7495 32.331C10.527 32.2763 11.826 33.3533 13.3103 34.1618C14.3655 34.7348 15.93 33.4898 15.0945 32.3753C14.8282 32.0168 14.5613 31.6613 14.292 31.3028C13.9155 31.9583 13.542 32.613 13.1663 33.2663C14.094 33.3 14.889 33.807 15.7192 34.1595C16.2832 34.3988 16.8263 34.3958 17.2995 33.9563C18.627 32.7188 22.425 33.3938 24.0645 33.6225V31.107C22.836 31.2915 21.6248 31.1745 20.3955 31.059V33.6683C22.8105 33.7155 25.2083 34.0253 27.6248 34.0695C30.156 34.1175 32.646 33.5918 35.1698 34.0238V31.5075C34.3432 31.7138 33.4786 31.7138 32.652 31.5075L32.3063 34.0695C35.0978 34.0665 38.502 34.1768 40.7228 32.2148C41.8005 31.2698 40.6222 29.835 39.4552 30.0353C38.4533 30.204 37.4722 30.444 36.4552 30.5243C36.6735 31.3358 36.8948 32.1428 37.1145 32.9543C38.2163 32.4368 39.3413 31.9658 40.4603 31.485C42 30.8198 40.668 28.5728 39.1433 29.235" fill="#F6921E"/>
<path d="M22.6501 36.06C24.2963 36.1425 25.9411 36.1425 27.5873 36.06C28.9778 35.9873 29.4586 33.708 27.9353 33.4958C26.0483 33.2333 24.1861 33.3473 22.2916 33.3578C22.4063 34.2143 22.5241 35.0655 22.6388 35.9213C23.9971 35.7225 25.2788 35.5538 26.5411 34.9823C28.0733 34.2863 26.7443 32.0408 25.2241 32.7323C24.2116 33.1898 23.0311 33.2498 21.9443 33.4073C20.4601 33.6263 20.8553 35.9813 22.2908 35.973C23.9326 35.9588 25.6096 35.787 27.2431 36.0135C27.3571 35.1593 27.4726 34.3058 27.5881 33.45C25.9434 33.5348 24.2955 33.5348 22.6508 33.45C20.9671 33.3653 20.9761 35.9775 22.6508 36.063L22.6501 36.06ZM34.8676 28.4693C32.7391 29.1068 30.6113 29.4885 28.3906 29.589C26.9948 29.652 26.5261 31.947 28.0433 32.1525C28.4549 32.2133 28.8719 32.2289 29.2868 32.199C30.6713 32.1053 31.1708 29.883 29.6371 29.6385C29.5382 29.6213 29.4392 29.6051 29.3401 29.5898C29.6431 29.892 29.9498 30.1973 30.2513 30.5033C30.2168 30.9795 30.2281 30.984 30.2783 30.5168C30.2569 30.3174 30.2274 30.119 30.1898 29.922C29.8988 28.2653 27.3878 28.9688 27.6736 30.6135C27.5603 29.9633 27.6841 31.0613 27.7366 31.1963C27.9661 31.776 28.3298 32.055 28.9426 32.1533C29.0581 31.2983 29.1751 30.4448 29.2876 29.5898C29.1041 29.5998 28.921 29.6161 28.7386 29.6385C28.6246 30.4913 28.5083 31.3455 28.3913 32.199C30.8226 32.0916 33.2313 31.6833 35.5621 30.9833C37.1701 30.5055 36.4823 27.9855 34.8676 28.4693ZM22.5601 24.3908C24.7178 24.3848 26.8718 24.3203 29.0251 24.48C28.9088 23.6258 28.7941 22.77 28.6771 21.9173C27.8498 22.116 26.9993 22.077 26.1511 22.1408C24.7126 22.2465 24.3413 24.2753 25.8061 24.7035C26.5516 24.9233 27.3788 24.9863 28.0988 25.2893C28.2016 24.4943 28.3021 23.6985 28.4093 22.905C26.9318 23.4518 25.4446 23.946 23.9213 24.3413C23.0011 24.5798 22.6133 25.8615 23.3453 26.5223C23.6716 26.817 23.9566 27.108 24.3278 27.354V25.104C24.1478 25.2225 23.9686 25.3425 23.7893 25.4633C23.1383 25.8968 22.8488 26.9363 23.5246 27.5138C23.9116 27.8453 24.2363 28.1843 24.6856 28.4355L24.9976 26.0475C24.6691 26.1885 24.4156 26.3205 24.1523 26.5643C23.5733 27.0953 23.6611 28.2675 24.4156 28.6133C24.7036 28.7438 24.9616 28.8578 25.2691 28.9223C26.9101 29.2635 27.6083 26.7495 25.9636 26.4075C25.8856 26.391 25.8106 26.3745 25.7348 26.3603L25.9981 28.4078C25.8976 28.4603 25.7948 28.5135 25.6928 28.5653C26.6641 28.1588 27.0938 26.7848 26.0041 26.178C25.7551 26.0385 25.5871 25.8495 25.3711 25.6635C25.2811 26.3468 25.1978 27.0293 25.1063 27.711C25.2871 27.5948 25.4656 27.4748 25.6456 27.3533C26.4818 26.7968 26.4863 25.656 25.6456 25.0958C25.4992 24.9499 25.3481 24.8089 25.1926 24.6728C24.9983 25.3995 24.8071 26.1263 24.6143 26.8538C26.1376 26.46 27.6293 25.9628 29.1023 25.4153C30.0196 25.0785 30.5693 23.5193 29.4143 23.0325C28.4626 22.6298 27.4838 22.4708 26.4991 22.1813C26.3843 23.037 26.2658 23.892 26.1503 24.7448C27.2371 24.6668 28.3066 24.6863 29.3723 24.429C30.8723 24.069 30.4321 21.9698 29.0243 21.8663C26.8711 21.7065 24.7171 21.7695 22.5593 21.7755C20.8778 21.786 20.8778 24.3938 22.5593 24.3908H22.5601ZM31.9981 24.702C34.0598 25.3553 35.9986 26.2913 37.8803 27.3548C38.2141 26.5598 38.5493 25.764 38.8846 24.9698C38.3528 24.8235 37.8301 24.798 37.2818 24.7425C36.6991 24.681 36.1838 25.1888 36.0226 25.6988C36.2603 24.933 37.1558 24.9645 36.5341 24.9825C36.2011 24.9833 35.8651 24.9488 35.5373 24.9195C34.9516 24.864 34.3688 24.7628 33.7808 24.7425C32.6236 24.7013 32.0783 26.1855 32.8583 26.97C33.4628 27.5798 34.1078 27.759 34.9463 27.7995C36.6316 27.8888 36.6218 25.2795 34.9463 25.1903C34.8683 25.167 34.7851 25.146 34.7056 25.1235C34.3966 25.8653 34.0913 26.6078 33.7823 27.3525C35.2126 27.3998 37.9403 28.3193 38.5403 26.3933C38.1211 26.7143 37.7033 27.033 37.2833 27.3525C37.5893 27.3698 37.8931 27.4155 38.1938 27.4845C39.6181 27.8768 40.4963 25.8338 39.1973 25.0988C37.1258 23.9273 34.9651 22.9028 32.6933 22.1843C31.0793 21.6773 30.3968 24.1995 31.9981 24.702ZM39.3226 29.52C39.0383 29.8418 38.7413 30.1425 38.4128 30.4178C38.4931 30.3623 38.4683 30.3795 38.3401 30.4733C38.2628 30.528 38.1848 30.579 38.1061 30.6315C38.0253 30.6813 37.9433 30.7291 37.8601 30.7748C37.8818 30.7598 37.4693 30.9675 37.6553 30.8888C36.9998 31.1625 36.5386 31.7415 36.7426 32.4945C36.9136 33.1125 37.6913 33.6818 38.3483 33.4058C39.4576 32.9415 40.3703 32.265 41.1713 31.365C41.6431 30.8333 41.6933 30.0435 41.1713 29.5193C40.6876 29.0415 39.7943 28.9883 39.3226 29.5193V29.52ZM11.9693 32.6468C12.6601 32.6475 13.3448 32.7405 14.0318 32.8283C14.7398 32.916 15.3353 32.166 15.3353 31.5233C15.3353 30.7425 14.7368 30.3068 14.0318 30.2168C13.3448 30.132 12.6601 30.0443 11.9693 30.0375C11.2546 30.0315 10.6628 30.6375 10.6628 31.3448C10.6628 32.0603 11.2546 32.6408 11.9693 32.6468Z" fill="#A87C4F"/>
<path d="M17.5102 3.96226C13.5419 5.79676 11.8852 9.14251 13.7452 12.867C14.8552 15.0893 16.6199 17.0033 18.0554 19.0613C19.8869 21.6923 19.8517 24.099 18.3967 26.8785C17.8297 27.9578 19.6402 28.9035 20.2102 27.8175C22.2667 23.8973 21.8317 20.8095 19.2374 17.2275C16.4504 13.3778 12.1139 8.55226 18.5714 5.56876C19.7752 5.01226 18.7109 3.40576 17.5109 3.96001" fill="#E6E7E8"/>
<path d="M24.3936 29.9881C26.2611 27.9008 26.6886 25.7896 25.7353 23.2561C24.6913 20.4841 22.6303 18.2303 22.5966 15.1913C22.5673 12.6751 23.9751 10.2233 24.9546 7.91856C25.9596 5.55081 26.4621 3.18156 25.9228 0.672057C25.6723 -0.504693 23.6503 -0.00669298 23.8956 1.16631C24.8593 5.68881 21.2923 9.61806 20.6046 13.9613C20.2858 15.9841 20.7208 17.9626 21.6568 19.8143C23.1283 22.7221 25.5756 25.6883 22.9056 28.6726C22.0746 29.6033 23.5514 30.9226 24.3936 29.9866" fill="#E6E7E8"/>
<path d="M30.8698 27.0975C30.8451 25.0537 30.5413 23.1862 29.7913 21.252C29.4388 20.349 28.8381 19.557 28.5111 18.6412C28.1826 17.724 28.8358 16.638 29.3091 15.8737C30.8983 13.3132 32.5731 11.3055 30.8653 8.39175C30.2376 7.32525 28.4256 8.2665 29.0451 9.3285C30.7131 12.1702 27.2083 14.4712 26.4816 17.1292C26.1051 18.4987 26.6488 19.7242 27.3208 20.9385C28.4068 22.911 28.7376 24.921 28.7623 27.0975C28.7818 28.2967 30.8848 28.2967 30.8698 27.0975Z" fill="#E6E7E8"/>
</g>
<defs>
<clipPath id="clip0_171_616">
<rect width="48" height="48" fill="white"/>
</clipPath>
</defs>
</svg>
